<svg xmlns="http://www.w3.org/2000/svg" viewBox="0 0 256 256" aria-label="CloudNyn">
  <defs>
    <linearGradient id="g" x1="0" x2="1" y1="0" y2="1">
      <stop offset="0%" stop-color="#0ea5e9"/>
      <stop offset="100%" stop-color="#6366f1"/>
    </linearGradient>
    <radialGradient id="glow" cx="50%" cy="40%" r="70%">
      <stop offset="0%" stop-color="#ffffff" stop-opacity="0.35"/>
      <stop offset="100%" stop-color="#ffffff" stop-opacity="0"/>
    </radialGradient>
  </defs>
  <rect x="24" y="44" width="208" height="168" rx="36" fill="url(#g)"/>
  <ellipse cx="128" cy="100" rx="84" ry="46" fill="url(#glow)"/>
  <path d="M76 162c-18 0-32-12-34-28-9-3-16-12-16-22 0-13 11-24 24-24 5 0 9 1 13 4 7-11 20-19 35-19 22 0 40 14 44 33 13 1 23 11 23 24 0 13-11 24-24 24H76z" fill="#fff" fill-opacity="0.9"/>
  <path d="M118 176c0-17 14-30 30-30h32c17 0 30 13 30 30 0 17-13 30-30 30h-32c-16 0-30-13-30-30z" fill="#0b1220" fill-opacity="0.15"/>
  <text x="128" y="150" text-anchor="middle" font-family="Inter, Segoe UI, system-ui, -apple-system, Roboto, Helvetica, Arial" font-size="60" font-weight="800" fill="#0b1220" fill-opacity="0.9">CN</text>
</svg>

