<svg xmlns="http://www.w3.org/2000/svg" viewBox="0 0 256 256">
  <defs>
    <linearGradient id="g" x1="0" x2="1" y1="0" y2="1">
      <stop offset="0%" stop-color="#3B82F6"/>
      <stop offset="100%" stop-color="#06B6D4"/>
    </linearGradient>
    <filter id="s" x="-20%" y="-20%" width="140%" height="140%">
      <feDropShadow dx="0" dy="6" stdDeviation="8" flood-color="#000" flood-opacity="0.15"/>
    </filter>
  </defs>
  <g filter="url(#s)">
    <path d="M88 180c-28 0-52-20-56-47-14-5-24-19-24-35 0-21 17-38 38-38 8 0 15 2 21 6 11-18 31-30 54-30 33 0 60 24 65 55 19 2 34 18 34 38 0 21-17 38-38 38H88z" fill="url(#g)"/>
    <text x="128" y="148" text-anchor="middle" font-family="Segoe UI, Inter, system-ui, -apple-system, Roboto, Helvetica, Arial" font-size="64" font-weight="700" fill="#ffffff">CN</text>
  </g>
  <title>CloudNyn</title>
</svg>

