<svg width="120" height="40" viewBox="0 0 120 40" fill="none" xmlns="http://www.w3.org/2000/svg">
  <!-- Cloud Icon -->
  <path d="M8 20C8 15.5817 11.5817 12 16 12C17.5 12 18.9 12.5 20 13.3C21.1 12.5 22.5 12 24 12C28.4183 12 32 15.5817 32 20C32 20.5 31.9 21 31.8 21.5C32.5 22.2 33 23.1 33 24C33 25.7 31.7 27 30 27H10C8.3 27 7 25.7 7 24C7 23.1 7.5 22.2 8.2 21.5C8.1 21 8 20.5 8 20Z" fill="#3B82F6"/>
  
  <!-- Cloud highlight -->
  <path d="M12 16C12 15.4 12.4 15 13 15C13.3 15 13.6 15.1 13.8 15.3C14.1 15.1 14.4 15 14.7 15C15.3 15 15.7 15.4 15.7 16C15.7 16.1 15.7 16.2 15.6 16.3C15.8 16.4 16 16.6 16 16.8C16 17.2 15.7 17.5 15.3 17.5H12.7C12.3 17.5 12 17.2 12 16.8C12 16.6 12.2 16.4 12.4 16.3C12.3 16.2 12.3 16.1 12.3 16Z" fill="#60A5FA"/>
  
  <!-- Cloud shadow -->
  <path d="M8 20C8 15.5817 11.5817 12 16 12C17.5 12 18.9 12.5 20 13.3C21.1 12.5 22.5 12 24 12C28.4183 12 32 15.5817 32 20C32 20.5 31.9 21 31.8 21.5C32.5 22.2 33 23.1 33 24C33 25.7 31.7 27 30 27H10C8.3 27 7 25.7 7 24C7 23.1 7.5 22.2 8.2 21.5C8.1 21 8 20.5 8 20Z" fill="#1E40AF" opacity="0.2"/>
  
  <!-- Text: CloudNyn -->
  <text x="45" y="16" font-family="Inter, -apple-system, BlinkMacSystemFont, sans-serif" font-size="14" font-weight="700" fill="currentColor">Cloud</text>
  <text x="45" y="28" font-family="Inter, -apple-system, BlinkMacSystemFont, sans-serif" font-size="14" font-weight="700" fill="#3B82F6">Nyn</text>
</svg>

